<?xml version="1.0" standalone="no"?>
<!DOCTYPE svg PUBLIC "-//W3C//DTD SVG 20010904//EN"
 "http://www.w3.org/TR/2001/REC-SVG-20010904/DTD/svg10.dtd">
<svg version="1.0" xmlns="http://www.w3.org/2000/svg"
 width="12.000000pt" height="512.000000pt" viewBox="0 0 512.000000 512.000000"
 preserveAspectRatio="xMidYMid meet">

<g transform="translate(0.000000,512.000000) scale(0.500000,-0.100000)"
fill="#DDC69F" stroke="none">
<path d="M1072 5029 c-74 -29 -118 -77 -133 -147 -14 -69 -7 -149 31 -347 52
-266 94 -393 211 -631 85 -173 158 -281 236 -349 l49 -43 -9 -66 -10 -66 -152
0 c-84 0 -280 5 -436 11 -538 21 -721 -14 -813 -155 -51 -79 -58 -204 -15
-293 22 -45 94 -103 129 -103 14 0 15 -45 15 -427 0 -236 3 -660 6 -943 l5
-515 -50 -25 c-89 -45 -130 -133 -115 -248 14 -105 84 -158 256 -194 74 -15
123 -19 204 -16 l107 4 12 -40 c29 -98 133 -222 237 -283 88 -51 171 -75 283
-80 174 -9 296 34 405 142 80 78 135 181 159 296 l6 26 57 -13 c47 -11 208
-14 822 -13 l764 0 17 -53 c26 -83 55 -132 119 -200 66 -71 139 -118 239 -156
60 -23 82 -26 202 -26 156 -1 210 15 316 90 99 70 193 214 210 324 6 39 9 41
33 36 14 -3 75 -11 134 -17 283 -32 491 77 514 269 4 40 1 60 -20 105 -30 66
-74 99 -161 121 -32 9 -61 17 -63 19 -2 3 1 16 7 31 6 16 10 120 10 244 0 119
5 301 12 405 22 345 -3 427 -207 672 -68 81 -145 188 -185 256 -38 63 -76 121
-84 128 -26 22 -19 27 54 38 172 27 238 109 228 283 -5 92 -40 176 -89 213
-107 80 -346 103 -994 93 -247 -3 -493 -3 -546 0 l-96 7 -5 424 c-5 362 -3
429 9 455 8 16 19 82 25 146 5 64 12 119 14 122 7 7 23 -21 34 -60 5 -19 16
-96 25 -170 19 -162 27 -192 66 -225 37 -30 96 -34 140 -8 44 26 78 103 85
195 5 59 2 102 -16 191 l-23 115 22 44 c15 33 35 53 78 78 144 87 179 169 103
240 -59 55 -127 59 -490 30 -112 -9 -1321 -15 -1575 -8 -96 3 -101 4 -124 31
-13 15 -36 34 -52 42 -42 22 -162 19 -227 -6z m196 -95 c35 -25 43 -56 52
-224 11 -210 52 -387 129 -553 15 -34 69 -119 120 -189 101 -140 141 -216 141
-266 0 -68 -50 -122 -113 -122 l-34 0 4 53 c4 49 1 58 -52 147 -69 115 -100
181 -166 358 -72 195 -126 386 -154 549 -26 150 -37 188 -62 215 -14 16 -14
18 8 26 13 5 31 12 39 15 29 11 66 7 88 -9z m315 -70 c82 -12 196 -15 595 -15
l492 0 0 -55 c0 -108 46 -164 134 -164 88 0 165 75 182 176 l6 42 77 6 c42 3
137 8 211 12 116 5 138 3 155 -10 20 -16 20 -17 -10 -39 -68 -51 -129 -115
-146 -152 -24 -53 -24 -139 1 -243 11 -46 20 -98 20 -116 0 -72 -47 -159 -84
-154 -25 4 -29 24 -45 207 -14 151 -26 194 -66 237 -37 39 -77 51 -109 34 -40
-21 -57 -65 -67 -172 -10 -101 -25 -154 -44 -152 -6 1 -20 31 -32 65 -27 77
-60 109 -111 109 -57 -1 -96 -24 -377 -219 -143 -99 -263 -181 -267 -181 -13
0 -9 31 12 105 38 131 22 185 -55 185 -107 0 -184 -146 -185 -348 l0 -82 -41
-38 c-23 -20 -46 -37 -51 -37 -17 0 -209 272 -247 350 -73 149 -113 330 -125
553 l-6 112 40 0 c22 0 86 -7 143 -16z m1164 -499 c13 -9 24 -31 28 -57 4 -24
13 -52 19 -63 10 -16 11 -91 4 -355 -5 -184 -7 -372 -4 -417 l5 -83 -543 0
-544 0 -7 46 c-6 45 -5 48 34 86 52 49 81 106 81 157 0 62 59 125 188 203 124
74 233 152 423 304 265 210 268 212 316 179z m-679 -81 c2 -11 -13 -62 -33
-113 -24 -61 -34 -102 -30 -120 4 -22 -1 -30 -37 -53 -24 -15 -45 -23 -46 -17
-8 22 19 174 38 217 23 51 78 114 95 109 5 -2 11 -12 13 -23z m848 -149 c-3
-33 -7 -214 -8 -402 -3 -336 -3 -343 -23 -343 -20 0 -20 7 -22 363 -2 199 -5
380 -8 403 l-6 41 37 -1 36 -1 -6 -60z m-1308 -675 c31 0 33 -2 30 -32 -3 -32
-4 -33 -55 -36 l-53 -3 0 42 c0 38 2 41 23 35 12 -3 37 -6 55 -6z m2297 -206
c347 -4 449 -12 542 -41 80 -25 97 -49 101 -143 6 -111 1 -115 -164 -124 -574
-32 -3789 -17 -4131 20 -65 7 -92 28 -100 77 -9 59 20 122 70 151 84 48 103
49 907 53 415 2 985 7 1265 12 281 5 659 7 840 4 182 -2 483 -6 670 -9z m-280
-479 c77 0 254 2 394 4 247 5 254 4 262 -15 4 -11 30 -60 58 -109 28 -49 51
-94 51 -101 0 -10 -109 -84 -124 -84 -3 0 -24 28 -47 63 -87 130 -126 157
-226 157 -92 0 -352 -26 -404 -40 -54 -15 -93 -57 -108 -114 -17 -69 -13 -266
9 -421 12 -77 25 -194 29 -261 8 -105 19 -154 48 -205 2 -3 -24 -25 -58 -49
-214 -150 -283 -257 -213 -327 24 -24 31 -25 91 -20 68 5 72 7 328 141 139 73
187 74 258 4 78 -76 166 -99 287 -74 131 28 330 139 441 247 l52 51 -7 -48
c-3 -26 -6 -73 -6 -105 l0 -59 -45 0 c-84 0 -142 -76 -170 -226 -8 -42 -15
-90 -15 -108 l0 -33 -102 5 -102 5 -45 43 c-94 90 -235 144 -376 144 -153 0
-234 -36 -356 -159 -64 -64 -95 -106 -126 -166 -38 -75 -73 -186 -73 -232 0
-20 -3 -21 -402 -22 l-403 -1 58 24 c68 28 91 46 107 87 18 41 5 90 -35 136
-19 23 -35 46 -35 53 0 6 56 38 124 71 133 64 181 100 192 143 8 33 -18 73
-62 96 -76 39 -703 -19 -989 -91 -94 -24 -244 -81 -292 -110 l-33 -21 -40 36
c-61 55 -139 103 -205 127 -77 27 -224 36 -306 19 -111 -24 -236 -119 -321
-245 -23 -33 -42 -61 -43 -63 -1 -1 -14 4 -29 12 -27 14 -27 14 -29 137 -2
101 -6 132 -23 169 -38 84 -117 124 -197 102 l-35 -10 -6 182 c-3 99 -8 265
-12 369 l-6 187 90 0 c98 0 189 22 240 58 l29 22 7 -58 c3 -31 10 -109 16
-173 9 -111 22 -170 43 -196 7 -10 0 -13 -30 -13 -102 0 -193 -56 -193 -119 0
-34 31 -76 70 -96 83 -43 2508 -54 2641 -12 88 27 129 74 129 146 0 61 -47
105 -130 122 l-59 11 13 27 c45 88 77 424 58 616 -17 172 -53 234 -157 270
-44 16 -107 18 -560 20 -280 2 -629 -1 -775 -5 -146 -4 -266 -6 -268 -5 -2 2
32 26 75 55 l78 52 930 -8 c512 -5 993 -9 1070 -9z m47 -624 c35 -39 53 -105
73 -259 9 -67 20 -134 25 -148 16 -41 13 -44 -45 -44 -46 0 -60 4 -80 24 -26
27 -27 30 -50 241 -9 83 -19 168 -22 189 l-6 39 39 -6 c26 -4 48 -17 66 -36z
m578 -83 c0 -2 -9 -27 -20 -56 -27 -70 -26 -132 2 -167 26 -33 69 -52 163 -75
64 -15 68 -17 48 -28 -13 -7 -91 -15 -189 -19 -161 -6 -167 -6 -162 13 3 10
18 90 33 177 l29 157 48 0 c26 0 48 -1 48 -2z m-1700 -161 c107 6 159 -16 124
-52 -18 -17 -133 -19 -497 -8 l-217 6 13 21 c28 42 66 46 307 38 124 -4 245
-6 270 -5z m218 -143 c2 -1 1 -12 -3 -23 -6 -21 -10 -21 -399 -21 l-392 0 -22
29 -21 29 417 -5 c229 -3 419 -7 420 -9z m462 -129 c23 -20 26 -40 8 -51 -37
-23 -75 -25 -1037 -50 -310 -8 -1505 13 -1563 27 -48 12 -49 34 -2 49 90 30
236 36 659 29 1197 -21 1418 -21 1610 0 208 23 297 22 325 -4z m-1978 -556
c30 -10 40 -20 49 -48 6 -20 34 -75 61 -123 64 -111 79 -164 80 -270 1 -79 -2
-93 -31 -153 -27 -55 -46 -76 -109 -126 -135 -105 -152 -120 -152 -135 0 -30
-126 -10 -224 36 -68 33 -160 121 -190 183 -72 149 -42 358 74 520 77 108 152
140 310 133 52 -3 112 -10 132 -17z m2771 -4 c35 -13 46 -20 38 -28 -20 -20
-11 -45 25 -68 88 -54 140 -184 131 -328 -13 -221 -138 -347 -372 -376 -33 -4
-72 -14 -87 -23 -25 -14 -29 -14 -81 11 -30 15 -78 51 -107 80 -124 124 -151
299 -74 487 57 139 138 228 235 255 69 19 225 14 292 -10z m851 -177 c54 -14
106 -58 106 -89 0 -11 -9 -37 -20 -58 -36 -72 -121 -96 -377 -103 -135 -4
-133 -6 -133 67 0 25 -19 101 -47 189 -6 19 0 19 208 13 118 -4 236 -13 263
-19z m-4403 -79 c57 -11 108 -24 112 -28 5 -5 2 -48 -5 -97 l-14 -89 -51 -8
c-64 -10 -280 24 -327 51 -42 25 -59 62 -45 99 35 93 126 113 330 72z"/>
<path d="M1750 4750 c-48 -9 -93 -34 -135 -76 -48 -48 -65 -94 -65 -178 0 -61
4 -78 27 -113 65 -101 208 -120 300 -40 94 82 112 257 37 347 -43 50 -100 71
-164 60z"/>
<path d="M2295 4681 c-45 -27 -83 -76 -96 -124 -23 -87 42 -167 136 -167 113
0 187 124 141 235 -28 67 -118 95 -181 56z"/>
<path d="M1013 899 c-122 -23 -197 -116 -198 -244 0 -87 25 -138 70 -143 17
-2 45 -18 65 -37 128 -124 338 -61 380 115 20 82 -13 193 -72 247 -55 51 -162
78 -245 62z m176 -115 c80 -67 88 -179 18 -251 -108 -113 -269 -24 -244 134
19 115 149 182 226 117z"/>
<path d="M3703 900 c-141 -72 -205 -269 -121 -375 18 -24 26 -27 60 -22 33 4
41 2 54 -18 24 -37 110 -75 168 -75 62 0 143 36 175 76 59 75 70 193 25 282
-31 62 -70 94 -150 123 -87 32 -159 35 -211 9z m252 -120 c35 -33 55 -82 55
-135 0 -57 -19 -96 -66 -132 -50 -38 -130 -39 -170 -3 -38 37 -54 73 -54 127
0 59 32 118 80 151 45 30 118 27 155 -8z"/>
</g>
</svg>
